<?xml version="1.0" encoding="utf-8"?>
<!-- Generator: Adobe Illustrator 19.0.0, SVG Export Plug-In . SVG Version: 6.00 Build 0)  -->
<svg version="1.1" id="图层_1" xmlns="http://www.w3.org/2000/svg" xmlns:xlink="http://www.w3.org/1999/xlink" x="0px" y="0px"
	 viewBox="0 0 265 59" style="enable-background:new 0 0 265 59;" xml:space="preserve">
<style type="text/css">
	.st0{fill:#C18E1B;}
	.st1{fill:#EDC33D;}
</style>
<g id="XMLID_1_">
	<path id="XMLID_3_" class="st0" d="M255.4,59H9.6C4.3,59,0,54.7,0,49.4V12.6C0,7.3,4.3,3,9.6,3h245.8c5.3,0,9.6,4.3,9.6,9.6v36.8
		C265,54.7,260.7,59,255.4,59z"/>
	<path id="XMLID_2_" class="st1" d="M255.4,56H9.6C4.3,56,0,51.7,0,46.4V9.6C0,4.3,4.3,0,9.6,0h245.8c5.3,0,9.6,4.3,9.6,9.6v36.8
		C265,51.7,260.7,56,255.4,56z"/>
</g>
</svg>
